<?xml version="1.0" encoding="UTF-8" standalone="no"?>
<!-- Created with Inkscape (http://www.inkscape.org/) -->

<svg
   width="53.190887mm"
   height="8.3522873mm"
   viewBox="0 0 53.190887 8.3522873"
   version="1.1"
   id="svg19679"
   xml:space="preserve"
   xmlns="http://www.w3.org/2000/svg"
   xmlns:svg="http://www.w3.org/2000/svg"><defs
     id="defs19676" /><g
     id="layer1"
     transform="translate(-69.016267,-73.851805)"><rect
       style="fill:#000000;stroke-width:0.223426"
       id="rect19872"
       width="53.190884"
       height="8.3522873"
       x="69.016266"
       y="73.851807" /><text
       xml:space="preserve"
       style="font-size:5.64444px;font-family:Avenir;-inkscape-font-specification:'Avenir, Normal';fill:#ffffff;stroke-width:0.264583"
       x="86.419823"
       y="79.68631"
       id="text19876"><tspan
         id="tspan19874"
         style="font-style:normal;font-variant:normal;font-weight:bold;font-stretch:normal;font-size:5.64444px;font-family:Arial;-inkscape-font-specification:'Arial Bold';fill:#ffffff;stroke-width:0.264583"
         x="86.419823"
         y="79.68631">People</tspan></text><g
       style="fill:#ffffff"
       id="g25698"
       transform="matrix(0.42857785,0,0,0.42857785,73.854041,72.464855)"><path
         d="m 0.221,16.268 a 15.064,15.064 0 0 0 1.789,1.9 C 2.008,18.111 2,18.057 2,18 A 5.029,5.029 0 0 1 5.233,13.322 1,1 0 0 0 5.408,11.538 2.968,2.968 0 0 1 4,9 2.988,2.988 0 0 1 9.022,6.8 5.951,5.951 0 0 1 11.044,6.085 4.994,4.994 0 1 0 3.131,12.17 7.07,7.07 0 0 0 0.221,16.268 Z m 23.558,0 a 7.07,7.07 0 0 0 -2.91,-4.1 4.994,4.994 0 1 0 -7.913,-6.086 5.949,5.949 0 0 1 2.022,0.715 2.993,2.993 0 1 1 3.614,4.74 1,1 0 0 0 0.175,1.784 A 5.029,5.029 0 0 1 22,18 c 0,0.057 -0.008,0.111 -0.01,0.167 a 15.065,15.065 0 0 0 1.789,-1.899 z"
         id="path25686"
         style="fill:#ffffff" /><path
         d="M 18.954,20.284 A 7.051,7.051 0 0 0 15.869,15.17 4.956,4.956 0 0 0 17,12 5,5 0 1 0 8.131,15.17 7.051,7.051 0 0 0 5.046,20.284 14.923,14.923 0 0 0 7.014,21.133 C 7.012,21.088 7,21.046 7,21 A 5.031,5.031 0 0 1 10.233,16.322 1,1 0 0 0 10.408,14.537 2.964,2.964 0 0 1 9,12 a 3,3 0 1 1 6,0 2.964,2.964 0 0 1 -1.408,2.537 1,1 0 0 0 0.175,1.785 A 5.031,5.031 0 0 1 17,21 c 0,0.046 -0.012,0.088 -0.013,0.133 a 14.919,14.919 0 0 0 1.967,-0.849 z"
         id="path25688"
         style="fill:#ffffff" /></g></g></svg>
